<?xml version="1.0" encoding="utf-8"?>
<!-- Generator: Adobe Illustrator 22.1.0, SVG Export Plug-In . SVG Version: 6.00 Build 0)  -->
<svg version="1.1" id="Layer_1" xmlns="http://www.w3.org/2000/svg" xmlns:xlink="http://www.w3.org/1999/xlink" x="0px" y="0px"
	 viewBox="0 0 663.4 131.9" style="enable-background:new 0 0 663.4 131.9;" xml:space="preserve">
<style type="text/css">
	.st0{fill:#5D44DC;}
	.st1{fill:#3C3B3B;}
</style>
<path class="st0" d="M115.4,2.4c-32-4.5-64.3-2.8-95.8,5.1C10.4,9.8-1,19.6,0.1,32.4c1.5,18,3.1,36.1,4.6,54.1
	c0.6,6.6,4.4,11,9.1,13.4l0.1,13.6c0,6.3,5.4,11.4,12,11.4c2.6,0,5.1-0.8,7.1-2.3l3.9-2.8c0.5-0.4,1.1-0.4,1.6,0
	c1.4,0.9,3,1.5,4.8,1.6l19.2,1.6h0.9c1.4,0,2.7-0.3,3.8-0.7c0.8-0.3,1.6-0.2,2.2,0.3l8.1,6.6c2.2,1.8,4.9,2.7,7.8,2.7
	c5.4,0,10.1-3.5,11.5-8.5l4.5-16.9c2.4,0.4,4.6,0.8,6.6,1.3c9.5,2.6,19.2-3.9,20.4-16c2.2-21.2,4.3-42.4,6.5-63.5
	C136.1,14.6,125.9,3.9,115.4,2.4L115.4,2.4z M30.7,57.3c2.1-2,5.4-1.9,7.4,0.2c3.7,3.9,8.6,6,13.7,6c5.2,0,10.1-2.1,13.7-6
	c2-2.1,5.3-2.2,7.4-0.2s2.2,5.3,0.2,7.4c-5.7,6-13.2,9.2-21.3,9.2s-15.6-3.3-21.3-9.2C28.5,62.6,28.6,59.3,30.7,57.3L30.7,57.3z
	 M98.9,93.5v0.1c0,0.2-0.1,0.4-0.1,0.6l-7.4,27.7c-0.7,2.7-3.3,4.3-6.1,4.3c-1.5,0-3-0.5-4.3-1.5l-10.9-8.9
	c-0.9-0.8-2.2-2.1-2.8-4.3c-0.1-0.2-0.3-0.6-0.4,0c-0.3,3.3-0.9,5.9-8.1,5.3l-13.5-1.1c-5.7-0.5-5.2-3.2-5.1-6.5
	c0-0.3-0.2-0.3-0.3,0c-0.5,1-1.3,2-2.2,2.7l-8.1,5.9c-1.2,0.9-2.5,1.2-3.9,1.2c-3.3,0-6.4-2.4-6.5-5.8L19.1,93v-0.2
	c0-0.3,0-0.5,0.1-0.8c0-0.1,0-0.1,0-0.2c0-0.2,0.1-0.4,0.1-0.6v-0.1c0.1-0.2,0.2-0.5,0.3-0.7c0-0.1,0.1-0.1,0.1-0.2
	c0.1-0.2,0.2-0.3,0.3-0.5l0.1-0.1c0.1-0.2,0.3-0.4,0.5-0.6l0.1-0.1c0.1-0.1,0.3-0.3,0.5-0.4c0.1,0,0.1-0.1,0.2-0.1
	c0.2-0.1,0.4-0.3,0.6-0.4s0.4-0.2,0.7-0.3c0.1,0,0.1-0.1,0.2-0.1c0.2-0.1,0.4-0.1,0.6-0.2h0.1c0.2-0.1,0.5-0.1,0.7-0.2h0.2
	c0.2,0,0.4,0,0.6-0.1h0.2H26h0.1c0.3,0,0.5,0.1,0.8,0.1c0.3,0.1,0.5,0.1,0.8,0.2c0,0,0.1,0,0.1,0.1c0.2,0.1,0.5,0.2,0.7,0.3l0.1,0.1
	c0.2,0.1,0.5,0.3,0.7,0.5l6.9,5.2l0.6,0.4c1.3,1,3,2.5,3.5,5.4c0.1,0.5,0.4,0.3,0.5,0c0.8-3.2,2.4-6.1,7.6-5.9L59.9,94
	c6.8,0.3,6.8,2.7,7,7.4c0,0.4,0.3,0.4,0.4,0c0.7-2.7,2.1-3.9,3.1-4.4l18.9-9.5c0.2-0.1,0.5-0.2,0.7-0.3h0.1c0.2-0.1,0.4-0.1,0.7-0.2
	h0.1c0.2,0,0.4-0.1,0.7-0.1h0.7h0.1H93h0.1c0.2,0,0.4,0.1,0.6,0.1h0.1c0.2,0,0.4,0.1,0.6,0.2h0.1c0.2,0.1,0.4,0.1,0.6,0.2
	c0.2,0.1,0.4,0.2,0.6,0.3c0,0,0.1,0,0.1,0.1c0.2,0.1,0.3,0.2,0.5,0.3h0.1c0.2,0.1,0.3,0.2,0.4,0.3c0,0,0.1,0,0.1,0.1
	c0.1,0.1,0.3,0.3,0.4,0.4l0.1,0.1c0.1,0.1,0.2,0.3,0.3,0.4v0.1c0.1,0.2,0.2,0.3,0.3,0.5c0,0,0,0.1,0.1,0.1c0.1,0.2,0.2,0.3,0.3,0.5
	s0.1,0.3,0.2,0.5v0.1c0,0.2,0.1,0.4,0.1,0.6v0.1v0.5v0.1C98.9,93.1,98.9,93.3,98.9,93.5L98.9,93.5z"/>
<g>
	<path class="st1" d="M192.7,70.1L179,42.5c-0.2-0.4-0.7-0.7-1.2-0.7h-8.9c-0.7,0-1.3,0.6-1.3,1.3v43.5c0,0.7,0.6,1.3,1.3,1.3h7.2
		c0.7,0,1.3-0.6,1.3-1.3V66.9c0-1.4,1.8-1.8,2.5-0.6l10.7,20.9c0.2,0.4,0.7,0.7,1.2,0.7h4.1c0.5,0,0.9-0.3,1.2-0.7l10.7-20.9
		c0.6-1.2,2.5-0.8,2.5,0.6v19.7c0,0.7,0.6,1.3,1.3,1.3h7.2c0.7,0,1.3-0.6,1.3-1.3V43.1c0-0.7-0.6-1.3-1.3-1.3h-9
		c-0.5,0-1,0.3-1.2,0.7l-13.7,27.6C194.5,71,193.2,71,192.7,70.1L192.7,70.1z"/>
	<path class="st1" d="M253.7,41.4c-13.1,0-23.4,10.3-23.4,23.4s10.3,23.3,23.4,23.3c13.1,0,23.4-10.3,23.4-23.3
		C277.1,51.7,266.8,41.4,253.7,41.4z M253.7,79.4c-7.6,0-13.6-6.4-13.6-14.6c0-7.2,5.1-14.6,13.6-14.6c8.5,0,13.6,7.4,13.6,14.6
		C267.2,73,261.3,79.4,253.7,79.4z"/>
	<path class="st1" d="M314.4,68.5l-17.7-26.3c-0.2-0.3-0.6-0.5-0.9-0.5h-8.5c-0.6,0-1.1,0.5-1.1,1.1v43.8c0,0.6,0.5,1.1,1.1,1.1h7.6
		c0.6,0,1.1-0.5,1.1-1.1v-25c0-1.1,1.5-1.6,2.1-0.6l17.7,26.2c0.2,0.3,0.6,0.5,0.9,0.5h8.6c0.6,0,1.1-0.5,1.1-1.1V42.9
		c0-0.6-0.5-1.1-1.1-1.1h-7.6c-0.6,0-1.1,0.5-1.1,1.1v25C316.5,69,315,69.4,314.4,68.5z"/>
	<path class="st1" d="M381.4,87.8h7.5c0.7,0,1.2-0.5,1.2-1.2V42.9c0-0.7-0.5-1.2-1.2-1.2h-7.5c-0.7,0-1.2,0.5-1.2,1.2v43.8
		C380.2,87.3,380.8,87.8,381.4,87.8L381.4,87.8z"/>
	<path class="st1" d="M411.9,68.4h15.3c0.7,0,1.3-0.6,1.3-1.3v-6.2c0-0.7-0.6-1.3-1.3-1.3h-15.3c-0.7,0-1.3-0.6-1.3-1.3v-6.4
		c0-0.7,0.6-1.3,1.3-1.3h19.4c0.7,0,1.3-0.6,1.3-1.3v-6.1c0-0.7-0.6-1.3-1.3-1.3h-29.2c-0.7,0-1.3,0.6-1.3,1.3v43.5
		c0,0.7,0.6,1.3,1.3,1.3h30.3c0.7,0,1.3-0.6,1.3-1.3v-6.1c0-0.7-0.6-1.3-1.3-1.3h-20.5c-0.7,0-1.3-0.6-1.3-1.3v-8
		C410.6,69,411.2,68.4,411.9,68.4L411.9,68.4z"/>
	<path class="st1" d="M471.7,69.1c0,4.7-1.6,10.3-9,10.3c-7.9,0-9.1-6.4-9.1-10.3V42.9c0-0.6-0.5-1.2-1.2-1.2h-7.5
		c-0.6,0-1.2,0.5-1.2,1.2v26.2c0,4.5,1.4,19,18.9,19c11.8,0,18.8-7.1,18.8-19V42.9c0-0.6-0.5-1.2-1.2-1.2h-7.5
		c-0.6,0-1.2,0.5-1.2,1.2v26.2H471.7z"/>
	<path class="st1" d="M527.3,58.6c0-9.4-7.4-16.8-16.8-16.9h-17.4c-0.5,0-0.9,0.4-0.9,0.9v44.3c0,0.5,0.4,0.9,0.9,0.9h8
		c0.5,0,0.9-0.4,0.9-0.9V76.4c0-0.5,0.4-0.9,0.9-0.9h5.5c0.3,0,0.6,0.2,0.8,0.4l7.8,11.5c0.2,0.3,0.5,0.4,0.8,0.4h9.2
		c0.8,0,1.2-0.8,0.8-1.5L519.4,74c-0.3-0.4-0.2-1,0.3-1.3C524.5,69.7,527.3,64.5,527.3,58.6L527.3,58.6z M502,51.4
		c0-0.5,0.4-0.9,0.9-0.9h7.4c4,0,7,3.5,7,8.1s-3,8.1-7,8.1h-7.4c-0.5,0-0.9-0.4-0.9-0.9V51.4z"/>
	<path class="st1" d="M598.3,54.3c0-6.9-5.4-12.6-12.1-12.6h-17.5c-0.6,0-1.1,0.5-1.1,1.1v43.9c0,0.6,0.5,1.1,1.1,1.1h17.5
		c8,0,14.4-6.7,14.4-14.8c0-4.4-1.8-8.3-5.1-11C597.3,59.9,598.3,57.2,598.3,54.3L598.3,54.3z M586.2,79.1h-7.7
		c-0.6,0-1.1-0.5-1.1-1.1v-9.9c0-0.6,0.5-1.1,1.1-1.1h7.9c2.4,0.1,4.4,2.8,4.4,6.1C590.7,76.4,588.7,79.1,586.2,79.1L586.2,79.1z
		 M585.7,58.2h-7.2c-0.6,0-1.1-0.5-1.1-1.1v-5.4c0-0.6,0.5-1.1,1.1-1.1h7.1c1.9,0,2.8,1.9,2.8,3.8C588.4,56.1,587.5,58,585.7,58.2
		L585.7,58.2z"/>
	<path class="st1" d="M610.8,87.8h8.5c0.4,0,0.7-0.3,0.7-0.7V42.4c0-0.4-0.3-0.7-0.7-0.7h-8.5c-0.4,0-0.7,0.3-0.7,0.7v44.7
		C610.1,87.5,610.4,87.8,610.8,87.8z"/>
	<path class="st1" d="M662.3,41.7H630c-0.6,0-1.1,0.5-1.1,1.1v6.6c0,0.6,0.5,1.1,1.1,1.1h19.1c0.9,0,1.4,1,0.8,1.7l-20.8,26.5
		c-0.1,0.2-0.2,0.4-0.2,0.7v7.4c0,0.6,0.5,1.1,1.1,1.1h32.3c0.6,0,1.1-0.5,1.1-1.1v-6.6c0-0.6-0.5-1.1-1.1-1.1h-19.2
		c-0.9,0-1.4-1-0.8-1.7l20.9-26.5c0.1-0.2,0.2-0.4,0.2-0.7v-7.4C663.4,42.2,662.9,41.7,662.3,41.7z"/>
	<path class="st1" d="M356.5,61.3l-1.1-0.4c-4.8-1.9-8.2-3.4-8.2-6.7c0-2.8,2.8-4,5.4-4c5,0,8.7,3.2,10.4,5.1l0.4,0.5
		c0.4,0.4,1,0.7,1.8-0.1l4.7-4.5l0.4-0.4c0.3-0.3,0.5-0.7-0.1-1.4l-0.4-0.4c-4.5-4.9-10.1-7.5-16.5-7.5c-10,0-16,6.8-16,13.4
		c0,8.4,7.6,11.6,13.2,14l0.6,0.3c6.2,2.6,8.9,3.9,8.9,6.2c0,3.6-4.6,4.2-7.2,4.2c-4.2,0-8.3-2.6-10.2-5.1l-0.3-0.4
		c-1-1.1-1.5-0.6-2.1,0l-4.8,4.8c-0.4,0.4-0.7,0.9-0.2,1.5l0.5,0.6c4.2,4.5,10.6,7.3,16.9,7.3h0.2c10.4-0.1,17.1-5.3,17.1-13.4
		C370,66.6,361.5,63.3,356.5,61.3L356.5,61.3z"/>
</g>
</svg>
